<!-- Generated by IcoMoon.io -->
<svg version="1.1" xmlns="http://www.w3.org/2000/svg" width="20" height="20" viewBox="0 0 200 200">
<title>icon-box</title>
<path d="M153.975 0h-107.956c-11.587 0-21.019 9.469-21.019 21.1v157.8c0 11.631 9.431 21.1 21.019 21.1h107.962c11.588 0 21.019-9.469 21.019-21.1v-157.8c0-11.631-9.431-21.1-21.025-21.1zM162.5 178.9c0 4.744-3.819 8.6-8.525 8.6h-107.956c-4.7 0-8.519-3.856-8.519-8.6v-157.8c0-4.744 3.819-8.6 8.519-8.6h107.962c4.7 0 8.519 3.856 8.519 8.6v157.8z"></path>
<path d="M100.019 75.362c-27.581 0-50.025 22.444-50.025 50.031 0 27.581 22.444 50.025 50.025 50.025s50.025-22.438 50.025-50.025-22.444-50.031-50.025-50.031zM100.019 162.925c-20.694 0-37.525-16.831-37.525-37.525 0-20.7 16.831-37.531 37.525-37.531 20.688 0 37.525 16.831 37.525 37.531 0 20.694-16.831 37.525-37.525 37.525z"></path>
<path d="M100.044 19.069c-13.719 0-24.881 11.162-24.881 24.881 0 13.725 11.162 24.887 24.881 24.887 13.725 0 24.888-11.162 24.888-24.887 0-13.719-11.163-24.881-24.888-24.881zM100.044 56.331c-6.825 0-12.381-5.563-12.381-12.387s5.55-12.381 12.381-12.381c6.831 0 12.388 5.556 12.388 12.381s-5.563 12.387-12.388 12.387z"></path>
<path d="M100.044 100.206c-13.887 0-25.194 11.306-25.194 25.194s11.3 25.188 25.194 25.188c13.888 0 25.194-11.3 25.194-25.188s-11.306-25.194-25.194-25.194zM100.044 138.081c-7 0-12.694-5.694-12.694-12.688 0-7 5.694-12.694 12.694-12.694s12.694 5.694 12.694 12.694c0 6.994-5.694 12.688-12.694 12.688z"></path>
</svg>
