<!-- Generated by IcoMoon.io -->
<svg version="1.1" xmlns="http://www.w3.org/2000/svg" width="20" height="20" viewBox="0 0 200 200">
<title>gallery-5</title>
<path d="M197.034 80.368c1.634 0 2.959-1.324 2.959-2.959v-14.926c0-12.347-7.602-23.209-19.060-27.481-2.928-7.285-8.786-13.206-16.038-16.215-4.25-10.977-14.912-18.787-27.371-18.787h-15.172c-1.634 0-2.959 1.324-2.959 2.959s1.324 2.959 2.959 2.959h15.172c12.918 0 23.427 10.509 23.427 23.427v73.995l-41.002-46.274c-0.562-0.633-1.367-0.996-2.214-0.996s-1.653 0.363-2.214 0.996l-44.167 49.844-25.485-23.665c-1.144-1.063-2.921-1.053-4.053 0.024l-35.898 34.161v-88.087c0-12.917 10.509-23.425 23.425-23.425h69.922c1.634 0 2.959-1.324 2.959-2.959s-1.324-2.959-2.959-2.959h-69.922c-16.179 0-29.343 13.164-29.343 29.343v108.18c0 12.209 7.497 22.696 18.128 27.112 3.015 7.816 9.273 14.011 17.114 16.94 4.434 11.079 15.198 18.425 27.237 18.425h108.17c16.18 0 29.344-13.164 29.344-29.344v-79.144c0-1.634-1.324-2.959-2.959-2.959s-2.959 1.324-2.959 2.959v79.144c0 12.918-10.509 23.427-23.427 23.427h-108.17c-8.109 0-15.494-4.173-19.73-10.788 0.916 0.086 1.839 0.134 2.763 0.134h108.177c16.18 0 29.344-13.164 29.344-29.344v-108.177c0-1.158-0.070-2.307-0.203-3.447 6.891 4.172 11.244 11.671 11.244 20.023v14.926c0 1.634 1.324 2.959 2.959 2.959zM5.917 137.523v-11.925l37.962-36.127 25.667 23.834c0.583 0.542 1.363 0.821 2.158 0.786 0.795-0.038 1.541-0.397 2.069-0.992l43.961-49.612 43.216 48.772v25.264c0 12.917-10.509 23.427-23.427 23.427h-108.18c-12.917 0-23.425-10.51-23.425-23.427zM177.118 154.085c0 12.918-10.51 23.427-23.428 23.427h-108.177c-2.417 0-4.804-0.369-7.092-1.096-0.024-0.008-0.050-0.015-0.076-0.023-5.254-1.685-9.702-5.182-12.61-9.756 1.184 0.146 2.387 0.23 3.609 0.23h108.18c16.179 0 29.343-13.164 29.343-29.344v-108.18c0-0.972-0.050-1.935-0.143-2.884 4.202 2.835 7.469 7.001 9.131 11.842 0.839 2.44 1.263 4.999 1.263 7.606v108.177z"></path>
<path d="M22.427 38.579c0 8.905 7.245 16.15 16.151 16.15 8.905 0 16.151-7.245 16.151-16.15 0-8.907-7.246-16.151-16.151-16.151-8.907 0-16.151 7.245-16.151 16.151zM48.813 38.579c0 5.643-4.591 10.234-10.234 10.234-5.644 0-10.234-4.591-10.234-10.234 0-5.644 4.59-10.234 10.234-10.234 5.643 0 10.234 4.59 10.234 10.234z"></path>
</svg>
