<!-- Generated by IcoMoon.io -->
<svg version="1.1" xmlns="http://www.w3.org/2000/svg" width="20" height="20" viewBox="0 0 200 200">
<title>rating</title>
<path d="M58.769 121.876c2.92-1.473 6.425-0.373 7.979 2.505l11.031 20.426c0.85 1.574 2.661 2.368 4.395 1.931s2.949-1.998 2.949-3.787v-29.825c-0-2.157-1.749-3.906-3.907-3.906s-3.906 1.749-3.906 3.906v14.371l-3.688-6.828c-3.579-6.626-11.65-9.161-18.372-5.768-5.754 2.903-8.716 9.305-7.205 15.57l7.151 29.641c1.671 6.929 4.652 13.36 8.857 19.115l14.009 19.171c0.765 1.047 1.953 1.602 3.157 1.602 0.8 0 1.607-0.245 2.302-0.753 1.742-1.273 2.122-3.717 0.849-5.459l-14.009-19.171c-3.595-4.919-6.141-10.415-7.57-16.338l-7.151-29.641c-0.657-2.721 0.63-5.502 3.129-6.763z"></path>
<path d="M146.963 105.227c-2.305 0-4.475 0.59-6.367 1.627-1.917-4.993-6.759-8.548-12.418-8.548-2.441 0-4.729 0.664-6.697 1.816-2.104-4.577-6.729-7.766-12.088-7.766-1.956 0-3.813 0.428-5.486 1.189v-18.676c0-7.333-5.966-13.299-13.299-13.299s-13.299 5.966-13.299 13.299v6.771c0 2.157 1.749 3.906 3.906 3.906s3.906-1.749 3.906-3.906v-6.771c0-3.025 2.461-5.486 5.486-5.486s5.486 2.461 5.486 5.486v55.12c0 2.157 1.749 3.906 3.906 3.906s3.906-1.749 3.906-3.906v-24.335c0-3.025 2.461-5.486 5.486-5.486s5.486 2.461 5.486 5.486v24.335c0 2.157 1.749 3.906 3.906 3.906s3.906-1.749 3.906-3.906v-18.385c0-3.025 2.461-5.487 5.486-5.487s5.486 2.461 5.486 5.487v18.385c0 2.157 1.749 3.906 3.906 3.906s3.906-1.749 3.906-3.906v-11.464c0-3.025 2.461-5.486 5.486-5.486s5.486 2.461 5.486 5.486v32.961c0 8.783-1.333 17.486-3.961 25.866l-5.51 17.571c-0.645 2.059 0.5 4.251 2.559 4.896 0.389 0.122 0.782 0.18 1.17 0.18 1.662-0 3.203-1.069 3.726-2.739l5.51-17.571c2.866-9.138 4.319-18.628 4.319-28.204v-32.961c0-7.332-5.965-13.298-13.298-13.298z"></path>
<path d="M199.673 20.714c-0.78-2.398-2.814-4.113-5.31-4.475l-11.964-1.735-5.354-10.841c-1.116-2.261-3.375-3.664-5.896-3.664-0 0-0.001 0-0.002 0-2.522 0-4.781 1.406-5.896 3.668l-5.348 10.843-11.964 1.742c-2.495 0.363-4.529 2.079-5.307 4.478s-0.14 4.981 1.666 6.741l8.66 8.437-2.041 11.916c-0.425 2.486 0.578 4.95 2.618 6.431 1.152 0.837 2.5 1.262 3.857 1.262 1.046 0 2.097-0.252 3.068-0.763l10.7-5.629 10.703 5.623c2.232 1.173 4.886 0.98 6.925-0.503s3.041-3.947 2.614-6.433l-2.047-11.915 8.655-8.441c1.805-1.761 2.442-4.345 1.662-6.742zM183.436 30.758c-1.55 1.511-2.257 3.688-1.89 5.821l1.733 10.087-9.060-4.76c-1.917-1.008-4.205-1.007-6.121 0.001l-9.058 4.765 1.728-10.089c0.365-2.134-0.343-4.309-1.893-5.82l-7.331-7.142 10.129-1.474c2.142-0.312 3.993-1.657 4.95-3.599l4.527-9.179 4.532 9.176c0.959 1.941 2.81 3.286 4.953 3.597l10.129 1.469-7.327 7.146z"></path>
<path d="M128.52 20.714c-0.78-2.398-2.814-4.113-5.31-4.475l-11.964-1.735-5.354-10.841c-1.116-2.261-3.375-3.664-5.896-3.664-0 0-0.001 0-0.002 0-2.521 0-4.781 1.406-5.896 3.668l-5.348 10.843-11.964 1.742c-2.495 0.363-4.529 2.079-5.307 4.478s-0.14 4.981 1.666 6.741l8.659 8.436-2.041 11.916c-0.425 2.486 0.578 4.95 2.618 6.431 1.152 0.837 2.5 1.262 3.857 1.262 1.046 0 2.097-0.252 3.068-0.763l10.7-5.629 10.703 5.623c2.232 1.173 4.886 0.98 6.925-0.503s3.041-3.947 2.614-6.433l-2.047-11.915 8.655-8.441c1.805-1.761 2.442-4.344 1.663-6.742zM112.283 30.758c-1.55 1.511-2.256 3.687-1.89 5.821l1.733 10.087-9.060-4.76c-1.917-1.007-4.206-1.007-6.121 0.001l-9.058 4.765 1.728-10.089c0.365-2.134-0.343-4.309-1.893-5.82l-7.331-7.142 10.129-1.474c2.142-0.312 3.993-1.657 4.95-3.599l4.527-9.179 4.532 9.177c0.958 1.941 2.809 3.286 4.953 3.597l10.129 1.469-7.327 7.146z"></path>
<path d="M57.367 20.714c-0.78-2.398-2.814-4.113-5.31-4.475l-11.964-1.735-5.353-10.841c-1.116-2.261-3.375-3.664-5.896-3.664-0 0-0.001 0-0.002 0-2.521 0-4.781 1.406-5.896 3.668l-5.348 10.843-11.964 1.742c-2.495 0.363-4.529 2.079-5.307 4.477s-0.141 4.981 1.666 6.741l8.66 8.437-2.041 11.916c-0.425 2.486 0.578 4.95 2.618 6.432 1.153 0.837 2.5 1.262 3.858 1.261 1.046 0 2.097-0.252 3.068-0.763l10.7-5.629 10.703 5.623c2.232 1.173 4.886 0.98 6.925-0.502s3.041-3.948 2.614-6.434l-2.047-11.915 8.655-8.441c1.805-1.761 2.442-4.344 1.662-6.742zM41.13 30.758c-1.55 1.511-2.257 3.688-1.89 5.822l1.733 10.087-9.060-4.76c-1.917-1.007-4.205-1.007-6.121 0.001l-9.059 4.766 1.727-10.088c0.366-2.134-0.342-4.309-1.893-5.821l-7.33-7.143 10.129-1.474c2.142-0.312 3.993-1.657 4.95-3.599l4.527-9.179 4.532 9.177c0.958 1.941 2.809 3.286 4.953 3.597l10.129 1.469-7.327 7.146z"></path>
<path d="M83.977 94.973c-0.727-0.727-1.734-1.145-2.762-1.145s-2.035 0.418-2.762 1.145-1.145 1.734-1.145 2.762c0 1.027 0.418 2.035 1.145 2.761s1.734 1.145 2.762 1.145 2.035-0.418 2.762-1.145c0.727-0.726 1.145-1.734 1.145-2.761s-0.418-2.036-1.145-2.762z"></path>
</svg>
