<svg width="20" height="20" viewBox="0 0 512 512" xmlns="http://www.w3.org/2000/svg"><path d="m476.363281 418.132812h-440.726562c-19.652344 0-35.636719-15.980468-35.636719-35.632812v-346.863281c0-19.652344 15.984375-35.636719 35.636719-35.636719h440.738281c19.640625 0 35.625 15.984375 35.625 35.636719v346.863281c0 19.652344-15.984375 35.632812-35.636719 35.632812zm-440.726562-401.066406c-10.242188 0-18.570313 8.328125-18.570313 18.570313v346.863281c0 10.238281 8.328125 18.566406 18.570313 18.566406h440.738281c10.238281 0 18.566406-8.328125 18.566406-18.566406v-346.863281c-.007812-10.242188-8.335937-18.570313-18.578125-18.570313zm0 0"/><path d="m476.363281 418.132812h-440.726562c-19.652344 0-35.636719-15.980468-35.636719-35.632812v-83.832031h512v83.832031c0 19.652344-15.984375 35.632812-35.636719 35.632812zm-459.296875-102.398437v66.765625c0 10.238281 8.328125 18.566406 18.570313 18.566406h440.726562c10.242188 0 18.570313-8.328125 18.570313-18.566406v-66.765625zm0 0"/><path d="m273.066406 384h-34.132812c-4.710938 0-8.535156-3.824219-8.535156-8.535156v-34.132813c0-4.710937 3.824218-8.53125 8.535156-8.53125h34.132812c4.710938 0 8.535156 3.820313 8.535156 8.53125v34.132813c0 4.710937-3.824218 8.535156-8.535156 8.535156zm-25.601562-17.066406h17.070312v-17.066406h-17.070312zm0 0"/><path d="m68.265625 196.265625c-2.183594 0-4.367187-.835937-6.03125-2.5l-25.601563-25.597656c-3.335937-3.339844-3.335937-8.730469 0-12.066407l25.601563-25.601562c3.328125-3.335938 8.738281-3.335938 12.066406 0 3.335938 3.335938 3.335938 8.730469 0 12.066406l-19.566406 19.566406 19.566406 19.566407c3.335938 3.335937 3.335938 8.730469 0 12.066406-1.664062 1.664063-3.847656 2.5-6.035156 2.5zm0 0"/><path d="m443.734375 196.265625c-2.1875 0-4.371094-.835937-6.035156-2.5-3.335938-3.335937-3.335938-8.730469 0-12.066406l19.566406-19.566407-19.566406-19.566406c-3.335938-3.335937-3.335938-8.730468 0-12.066406 3.328125-3.335938 8.738281-3.335938 12.066406 0l25.601563 25.601562c3.335937 3.335938 3.335937 8.726563 0 12.066407l-25.601563 25.597656c-1.664063 1.664063-3.847656 2.5-6.03125 2.5zm0 0"/><path d="m187.734375 128h-51.199219c-4.710937 0-8.535156-3.824219-8.535156-8.535156v-51.199219c0-4.710937 3.824219-8.53125 8.535156-8.53125h51.199219c4.710937 0 8.53125 3.820313 8.53125 8.53125v51.199219c0 4.710937-3.820313 8.535156-8.53125 8.535156zm-42.667969-17.066406h34.132813v-34.132813h-34.132813zm0 0"/><path d="m281.601562 128h-51.203124c-4.707032 0-8.53125-3.824219-8.53125-8.535156v-51.199219c0-4.710937 3.824218-8.53125 8.53125-8.53125h51.203124c4.707032 0 8.53125 3.820313 8.53125 8.53125v51.199219c0 4.710937-3.824218 8.535156-8.53125 8.535156zm-42.667968-17.066406h34.132812v-34.132813h-34.132812zm0 0"/><path d="m375.464844 128h-51.199219c-4.710937 0-8.53125-3.824219-8.53125-8.535156v-51.199219c0-4.710937 3.820313-8.53125 8.53125-8.53125h51.199219c4.710937 0 8.535156 3.820313 8.535156 8.53125v51.199219c0 4.710937-3.824219 8.535156-8.535156 8.535156zm-42.664063-17.066406h34.132813v-34.132813h-34.132813zm0 0"/><path d="m187.734375 221.867188h-51.199219c-4.710937 0-8.535156-3.824219-8.535156-8.535157v-51.199219c0-4.710937 3.824219-8.53125 8.535156-8.53125h51.199219c4.710937 0 8.53125 3.820313 8.53125 8.53125v51.199219c0 4.710938-3.820313 8.535157-8.53125 8.535157zm-42.667969-17.066407h34.132813v-34.132812h-34.132813zm0 0"/><path d="m281.601562 221.867188h-51.203124c-4.707032 0-8.53125-3.824219-8.53125-8.535157v-51.199219c0-4.710937 3.824218-8.53125 8.53125-8.53125h51.203124c4.707032 0 8.53125 3.820313 8.53125 8.53125v51.199219c0 4.710938-3.824218 8.535157-8.53125 8.535157zm-42.667968-17.066407h34.132812v-34.132812h-34.132812zm0 0"/><path d="m375.464844 221.867188h-51.199219c-4.710937 0-8.53125-3.824219-8.53125-8.535157v-51.199219c0-4.710937 3.820313-8.53125 8.53125-8.53125h51.199219c4.710937 0 8.535156 3.820313 8.535156 8.53125v51.199219c0 4.710938-3.824219 8.535157-8.535156 8.535157zm-42.664063-17.066407h34.132813v-34.132812h-34.132813zm0 0"/><path d="m187.734375 256h-51.199219c-4.710937 0-8.535156-3.824219-8.535156-8.535156 0-4.707032 3.824219-8.53125 8.535156-8.53125h51.199219c4.710937 0 8.53125 3.824218 8.53125 8.53125 0 4.710937-3.820313 8.535156-8.53125 8.535156zm0 0"/><path d="m281.601562 256h-51.203124c-4.707032 0-8.53125-3.824219-8.53125-8.535156 0-4.707032 3.824218-8.53125 8.53125-8.53125h51.203124c4.707032 0 8.53125 3.824218 8.53125 8.53125 0 4.710937-3.824218 8.535156-8.53125 8.535156zm0 0"/><path d="m375.464844 256h-51.199219c-4.710937 0-8.53125-3.824219-8.53125-8.535156 0-4.707032 3.820313-8.53125 8.53125-8.53125h51.199219c4.710937 0 8.535156 3.824218 8.535156 8.53125 0 4.710937-3.824219 8.535156-8.535156 8.535156zm0 0"/><path d="m384 512h-256c-4.710938 0-8.535156-3.824219-8.535156-8.535156v-17.082032c0-14.105468 11.480468-25.582031 25.585937-25.582031h221.898438c14.105469 0 25.585937 11.476563 25.585937 25.582031v17.082032c0 4.710937-3.824218 8.535156-8.535156 8.535156zm-247.464844-17.066406h238.929688v-8.550782c0-4.691406-3.820313-8.515624-8.515625-8.515624h-221.898438c-4.695312 0-8.515625 3.824218-8.515625 8.515624zm0 0"/><path d="m349.867188 477.867188h-187.734376c-4.710937 0-8.53125-3.824219-8.53125-8.535157 0-4.710937 3.820313-8.53125 8.53125-8.53125 30.3125 0 42.667969-14.832031 42.667969-51.199219 0-4.710937 3.820313-8.535156 8.53125-8.535156h85.335938c4.710937 0 8.53125 3.824219 8.53125 8.535156 0 36.367188 12.355469 51.199219 42.667969 51.199219 4.710937 0 8.53125 3.820313 8.53125 8.53125 0 4.710938-3.820313 8.535157-8.53125 8.535157zm-143.070313-17.066407h98.414063c-8.730469-9.933593-13.6875-24.175781-14.820313-42.667969h-68.78125c-1.132813 18.492188-6.089844 32.734376-14.8125 42.667969zm0 0"/></svg>