<!-- Generated by IcoMoon.io -->
<svg version="1.1" xmlns="http://www.w3.org/2000/svg" width="20" height="20" viewBox="0 0 200 200">
<title>pricing-icon</title>
<path d="M88.325 82.036l-2.279-2.279c-1.737-1.736-4.553-1.736-6.29 0s-1.737 4.553 0 6.29l2.275 2.275c-1.977 3.14-3.041 6.776-3.041 10.578 0 5.318 2.071 10.317 5.831 14.078s8.76 5.831 14.078 5.831c3.802 0 7.438-1.064 10.578-3.041l15.27 15.27c-1.253 0.485-2.597 0.742-3.982 0.742-2.942 0-5.708-1.145-7.788-3.226-1.737-1.736-4.553-1.736-6.29 0s-1.737 4.553 0 6.29c3.881 3.881 8.979 5.822 14.078 5.822 3.678 0 7.354-1.015 10.575-3.036l2.279 2.279c0.869 0.868 2.007 1.303 3.145 1.303s2.277-0.435 3.145-1.303c1.737-1.737 1.737-4.553 0-6.29l-2.275-2.275c1.977-3.14 3.041-6.776 3.041-10.578 0-5.318-2.071-10.317-5.831-14.078s-8.76-5.831-14.078-5.831c-3.801 0-7.438 1.064-10.578 3.041l-15.27-15.27c1.253-0.485 2.597-0.742 3.981-0.742 2.942 0 5.708 1.145 7.788 3.226 1.737 1.736 4.553 1.736 6.29 0s1.737-4.553 0-6.29c-6.68-6.681-16.965-7.606-24.652-2.787zM91.112 106.688c-2.081-2.080-3.226-4.846-3.226-7.788 0-1.385 0.257-2.729 0.742-3.982l14.246 14.246c-3.942 1.52-8.587 0.699-11.762-2.476zM128.553 112.978c2.081 2.080 3.226 4.846 3.226 7.788 0 1.384-0.257 2.729-0.742 3.982l-14.246-14.246c3.942-1.52 8.587-0.699 11.762 2.476z"></path>
<path d="M198.046 113.501l-90.65-90.651c-0.931-0.931-2.118-1.566-3.409-1.825l-35.613-7.122c-2.189-0.435-4.448 0.248-6.026 1.825l-11.921 11.921v-2.966c0-13.61-11.073-24.683-24.683-24.683h-1.060c-13.611 0-24.683 11.073-24.683 24.684v1.060c0 13.611 11.073 24.683 24.683 24.683h2.966l-11.921 11.921c-1.577 1.577-2.262 3.838-1.824 6.026l7.122 35.612c0.258 1.292 0.893 2.478 1.824 3.409l90.65 90.65c1.303 1.303 3.010 1.954 4.717 1.954s3.415-0.652 4.717-1.954l75.11-75.11c1.251-1.251 1.954-2.948 1.954-4.717s-0.702-3.467-1.954-4.718zM13.343 25.744v-1.060c0-6.253 5.087-11.34 11.34-11.34h1.060c6.253 0 11.34 5.087 11.34 11.34v12.401h-12.401c-6.253 0-11.34-5.087-11.34-11.34zM118.218 183.893l-84.504-84.504-6.026-30.131 41.571-41.571 30.131 6.026 84.504 84.504-65.675 65.675z"></path>
<path d="M59.941 53.27c-1.757 0-3.474 0.712-4.714 1.953-1.245 1.245-1.957 2.962-1.957 4.719s0.712 3.478 1.957 4.719c1.241 1.241 2.958 1.953 4.714 1.953s3.478-0.712 4.719-1.953c1.241-1.241 1.953-2.962 1.953-4.719s-0.712-3.474-1.953-4.719c-1.24-1.241-2.962-1.953-4.719-1.953z"></path>
</svg>
