<!-- Generated by IcoMoon.io -->
<svg version="1.1" xmlns="http://www.w3.org/2000/svg" width="20" height="20" viewBox="0 0 200 200">
<title>blogging</title>
<path d="M26.293 26.769h-0.040c-2.162 0-3.914 1.752-3.914 3.914s1.752 3.914 3.914 3.914h0.040c2.162 0 3.914-1.752 3.914-3.914s-1.752-3.914-3.914-3.914z"></path>
<path d="M45.679 26.769h-0.040c-2.162 0-3.914 1.752-3.914 3.914s1.752 3.914 3.914 3.914h0.040c2.162 0 3.914-1.752 3.914-3.914s-1.752-3.914-3.914-3.914z"></path>
<path d="M65.065 26.769h-0.040c-2.162 0-3.914 1.752-3.914 3.914s1.752 3.914 3.914 3.914h0.040c2.162 0 3.914-1.752 3.914-3.914s-1.752-3.914-3.914-3.914z"></path>
<path d="M173.898 26.769h-75.511c-2.162 0-3.914 1.752-3.914 3.914 0 2.16 1.752 3.914 3.914 3.914h75.511c2.162 0 3.914-1.754 3.914-3.914 0-2.162-1.752-3.914-3.914-3.914z"></path>
<path d="M102.893 184.907c-1.029 0-2.035 0.419-2.767 1.147-0.728 0.728-1.147 1.738-1.147 2.767s0.419 2.039 1.147 2.767c0.732 0.728 1.738 1.147 2.767 1.147s2.039-0.419 2.767-1.147c0.731-0.728 1.147-1.738 1.147-2.767s-0.416-2.039-1.147-2.767c-0.728-0.728-1.738-1.147-2.767-1.147z"></path>
<path d="M187.957 8.023h-175.523c-6.855 0-12.434 5.579-12.434 12.434v159.843c0 6.857 5.579 12.434 12.434 12.434h74.063c2.162 0 3.914-1.752 3.914-3.914s-1.752-3.914-3.914-3.914h-74.063c-2.539 0-4.606-2.065-4.606-4.606v-126.958h184.736v126.958c0 2.539-2.067 4.606-4.606 4.606h-69.105c-2.162 0-3.914 1.752-3.914 3.914s1.752 3.914 3.914 3.914h69.105c6.855 0 12.434-5.577 12.434-12.434v-159.843c0-6.855-5.579-12.434-12.434-12.434zM7.828 45.513v-25.055c0-2.539 2.067-4.606 4.606-4.606h175.523c2.539 0 4.606 2.067 4.606 4.606v25.057h-184.736z"></path>
<path d="M69.683 98.043c0-7.77-6.32-14.090-14.090-14.090h-13.177c-2.162 0-3.914 1.752-3.914 3.914v40.704c0 2.162 1.752 3.914 3.914 3.914h13.177c7.77 0 14.090-6.32 14.090-14.090 0-3.998-1.676-7.609-4.36-10.176 2.685-2.567 4.36-6.178 4.36-10.176zM61.855 118.395c0 3.452-2.81 6.262-6.262 6.262h-9.263v-12.524h9.263c3.452 0 6.262 2.809 6.262 6.262zM46.329 104.305v-12.524h9.263c3.454 0 6.262 2.81 6.262 6.262s-2.809 6.262-6.262 6.262z"></path>
<path d="M80.88 83.953c-2.162 0-3.914 1.752-3.914 3.914v31.652c0 7.151 5.817 12.966 12.966 12.966 2.162 0 3.914-1.752 3.914-3.914s-1.752-3.914-3.914-3.914c-2.833 0-5.138-2.305-5.138-5.138v-31.652c0-2.162-1.752-3.914-3.914-3.914z"></path>
<path d="M127.15 118.313c0-7.816-6.357-14.174-14.173-14.174s-14.173 6.359-14.173 14.174 6.359 14.173 14.173 14.173c7.816 0 14.173-6.357 14.173-14.173zM106.632 118.313c0-3.5 2.847-6.346 6.345-6.346s6.345 2.847 6.345 6.346c0 3.498-2.845 6.345-6.345 6.345s-6.345-2.847-6.345-6.345z"></path>
<path d="M147.716 143.444c-3.498 0-6.345-2.847-6.345-6.345 0-2.162-1.752-3.914-3.914-3.914s-3.914 1.752-3.914 3.914c0 7.816 6.359 14.173 14.173 14.173 7.816 0 14.174-6.357 14.174-14.173v-18.787c0-7.816-6.359-14.174-14.174-14.174-7.814 0-14.173 6.359-14.173 14.174s6.359 14.173 14.173 14.173c2.281 0 4.435-0.544 6.346-1.506v6.12c0 3.498-2.847 6.345-6.346 6.345zM147.716 124.658c-3.498 0-6.345-2.847-6.345-6.345 0-3.5 2.847-6.346 6.345-6.346 3.5 0 6.346 2.847 6.346 6.346 0 3.498-2.847 6.345-6.346 6.345z"></path>
<path d="M42.415 170.841h115.561c2.162 0 3.914-1.752 3.914-3.914s-1.752-3.914-3.914-3.914h-115.561c-2.16 0-3.914 1.752-3.914 3.914s1.754 3.914 3.914 3.914z"></path>
</svg>
