<!-- Generated by IcoMoon.io -->
<svg version="1.1" xmlns="http://www.w3.org/2000/svg" width="20" height="20" viewBox="0 0 200 200">
<title>fun-facts-line</title>
<path d="M184.047 159.917h-168.094c-8.8 0-15.953-7.156-15.953-15.953v-87.928c0-8.797 7.153-15.953 15.953-15.953h168.094c8.8 0 15.953 7.156 15.953 15.953v87.928c0 8.797-7.153 15.953-15.953 15.953zM15.953 48.059c-4.397 0-7.977 3.577-7.977 7.977v87.928c0 4.393 3.58 7.973 7.977 7.973h168.094c4.397 0 7.98-3.58 7.98-7.973v-87.928c0-4.4-3.58-7.977-7.98-7.977 0 0-168.094 0-168.094 0z"></path>
<path d="M99.995 131.167c-17.183 0-31.165-13.986-31.165-31.172s13.982-31.169 31.165-31.169c17.187 0 31.172 13.982 31.172 31.169s-13.982 31.172-31.172 31.172zM99.995 72.816c-14.988 0-27.179 12.194-27.179 27.182 0 14.992 12.191 27.186 27.179 27.186 14.992 0 27.186-12.194 27.186-27.186 0-14.988-12.194-27.182-27.186-27.182z"></path>
<path d="M99.995 144.777c-24.688 0-44.776-20.088-44.776-44.776 0-24.695 20.088-44.782 44.776-44.782 24.691 0 44.782 20.088 44.782 44.782 0 24.688-20.091 44.776-44.782 44.776zM99.995 59.209c-22.486 0-40.786 18.3-40.786 40.793 0 22.486 18.296 40.786 40.786 40.786s40.793-18.296 40.793-40.786c0-22.493-18.3-40.793-40.793-40.793z"></path>
<path d="M123.301 98.007h72.709v3.99h-72.709v-3.99z"></path>
<path d="M3.987 98.007h72.203v3.99h-72.203v-3.99z"></path>
<path d="M98.003 123.015h3.99v34.36h-3.99v-34.36z"></path>
<path d="M98.003 42.622h3.99v34.521h-3.99v-34.521z"></path>
<path d="M97.948 90.605h-0.093l-5.403 2.918-0.813-3.201 6.791-3.638h3.587v31.093h-4.066l-0.004-27.172z"></path>
</svg>
