<svg id="Layer_3" enable-background="new 0 0 64 64" height="20" viewBox="0 0 64 64" width="20" xmlns="http://www.w3.org/2000/svg"><path d="m36 27v-2c0-2.206-1.794-4-4-4s-4 1.794-4 4v2c0 2.206 1.794 4 4 4s4-1.794 4-4zm-2 0c0 1.103-.897 2-2 2s-2-.897-2-2v-2c0-1.103.897-2 2-2s2 .897 2 2z"/><path d="m58 27c0-14.336-11.664-26-26-26s-26 11.664-26 26c0 11.732 7.779 21.898 19 25.025v5.16c-1.161.414-2 1.514-2 2.816v2c0 .552.448 1 1 1h6c.552 0 1-.448 1-1v-4-9h2v9 4c0 .552.448 1 1 1h6c.552 0 1-.448 1-1v-2c0-1.302-.839-2.402-2-2.816v-5.16c11.221-3.127 19-13.293 19-25.025zm-50 0c0-13.234 10.767-24 24-24s24 10.766 24 24c0 10.641-6.932 19.886-17 22.943v-2.099c8.865-2.982 15-11.435 15-20.844 0-12.131-9.869-22-22-22s-22 9.869-22 22c0 9.409 6.135 17.862 15 20.843v2.099c-10.068-3.056-17-12.301-17-22.942zm11.293 11.293-2.101 2.101c-3.03-3.363-4.912-7.723-5.15-12.394h3.958v-2h-3.949c.237-4.759 2.137-9.077 5.141-12.395l2.102 2.102 1.414-1.414-2.102-2.102c3.317-3.004 7.635-4.903 12.394-5.14v3.949h2v-3.949c4.759.237 9.077 2.137 12.395 5.141l-2.102 2.102 1.414 1.414 2.102-2.102c3.004 3.318 4.904 7.635 5.141 12.395h-3.95v2h3.958c-.238 4.671-2.121 9.031-5.15 12.394l-2.101-2.101-1.414 1.414 2.101 2.101c-1.841 1.677-3.997 3.024-6.394 3.922v-8.731h1c2.757 0 5-2.243 5-5v-10c0-.552-.448-1-1-1h-4c-.552 0-1 .448-1 1v9h-7-7v-9c0-.552-.448-1-1-1h-4c-.552 0-1 .448-1 1v10c0 2.757 2.243 5 5 5h1v8.73c-2.397-.898-4.552-2.246-6.394-3.922l2.101-2.101zm6.707-3.293h-2c-1.654 0-3-1.346-3-3v-9h2v9c0 .552.448 1 1 1h16c.552 0 1-.448 1-1v-9h2v9c0 1.654-1.346 3-3 3h-2c-.552 0-1 .448-1 1v7h-10v-7c0-.552-.448-1-1-1zm3 26h-4v-1c0-.551.449-1 1-1h3zm1-14c-.552 0-1 .448-1 1v9h-2v-12h10v12h-2v-9c0-.552-.448-1-1-1zm9 14h-4v-2h3c.551 0 1 .449 1 1z"/></svg>