<!-- Generated by IcoMoon.io -->
<svg version="1.1" xmlns="http://www.w3.org/2000/svg" width="20" height="20" viewBox="0 0 200 200">
<title>headding</title>
<path d="M192.642 172.397h-5.647v-104.884c0-10.707-8.301-19.505-18.805-20.314v-36.194c0-3.699-3.011-6.708-6.709-6.708h-12.558c-1.64 0-2.971 1.331-2.971 2.971s1.331 2.969 2.971 2.969h12.558c0.423 0 0.768 0.345 0.768 0.768v41.451c0 0.424-0.345 0.768-0.768 0.768h-15.822c-0.424 0-0.768-0.343-0.768-0.768v-18.152c0-3.699-3.011-6.708-6.709-6.708h-19.83c-3.699 0-6.709 3.009-6.709 6.708v88.248c0 3.7 3.011 6.709 6.709 6.709h16.457c0.424 0 0.769 0.343 0.769 0.768v15.822c0 0.423-0.345 0.768-0.769 0.768h-69.62c-0.423 0-0.768-0.345-0.768-0.768v-15.822c0-0.424 0.345-0.768 0.768-0.768h16.67c3.699 0 6.708-3.011 6.708-6.709v-88.248c0-3.699-3.009-6.708-6.708-6.708h-20.042c-3.7 0-6.709 3.009-6.709 6.708v18.152c0 0.424-0.343 0.768-0.768 0.768h-15.822c-0.423 0-0.768-0.343-0.768-0.768v-41.451c0-0.423 0.345-0.768 0.768-0.768h98.524c1.64 0 2.969-1.329 2.969-2.969s-1.329-2.971-2.969-2.971h-98.524c-3.699 0-6.708 3.011-6.708 6.708v36.195c-10.503 0.809-18.802 9.607-18.802 20.313v104.884h-5.65c-4.057 0-7.358 3.3-7.358 7.358 0 8.975 7.303 16.278 16.278 16.278h167.444c8.975 0 16.278-7.303 16.278-16.278 0-4.057-3.3-7.358-7.358-7.358zM113.443 178.337c-1.022 1.738-2.913 2.907-5.071 2.907h-16.745c-2.158 0-4.048-1.169-5.071-2.907zM118.352 33.536h19.83c0.424 0 0.768 0.343 0.768 0.768v12.83h-21.365v-12.83c0-0.423 0.345-0.768 0.768-0.768zM61.816 33.536h20.042c0.423 0 0.768 0.343 0.768 0.768v12.83h-21.579v-12.83c0.002-0.423 0.345-0.768 0.769-0.768zM18.948 67.513c0-7.442 5.658-13.585 12.898-14.357 0.351 3.372 3.209 6.009 6.671 6.009h15.822c3.491 0 6.364-2.681 6.677-6.091h21.61v8.812h-46.388c-6.090 0-11.044 4.954-11.044 11.044v42.738c0 1.64 1.329 2.969 2.969 2.969s2.971-1.329 2.971-2.969v-42.738c0-2.814 2.29-5.104 5.104-5.104h46.388v54.726c0 0.424-0.345 0.768-0.768 0.768h-16.669c-3.699 0-6.709 3.009-6.709 6.709v15.822c0 3.699 3.011 6.708 6.709 6.708h69.62c3.699 0 6.708-3.009 6.708-6.708v-15.822c0-3.7-3.009-6.709-6.708-6.709h-16.458c-0.423 0-0.768-0.343-0.768-0.768v-54.726h46.176c2.814 0 5.104 2.29 5.104 5.104v82.448c0 2.814-2.289 5.101-5.104 5.101h-127.522c-2.814 0-5.104-2.287-5.104-5.101v-27.829c0-1.64-1.331-2.971-2.971-2.971s-2.969 1.331-2.969 2.971v27.829c0 6.088 4.954 11.043 11.044 11.043h127.521c6.091 0 11.046-4.954 11.046-11.043v-82.448c0-6.090-4.954-11.044-11.046-11.044h-46.175v-8.812h21.397c0.313 3.41 3.186 6.091 6.677 6.091h15.822c3.462 0 6.319-2.637 6.671-6.009 7.242 0.772 12.903 6.915 12.903 14.357v104.883h-162.106zM183.722 190.092h-167.444c-5.701 0-10.338-4.639-10.338-10.338 0-0.781 0.636-1.418 1.418-1.418h72.83c1.321 5.084 5.949 8.849 11.439 8.849h16.745c5.492 0 10.12-3.764 11.439-8.849h72.83c0.781 0 1.418 0.636 1.418 1.418 0 5.699-4.637 10.338-10.338 10.338z"></path>
</svg>
