<!-- Generated by IcoMoon.io -->
<svg version="1.1" xmlns="http://www.w3.org/2000/svg" width="20" height="20" viewBox="0 0 200 200">
<title>icon-box-line</title>
<path d="M156.25 0h-112.5c-9.531 0-17.188 7.656-17.188 17.188v165.625c0 9.531 7.656 17.188 17.188 17.188h112.5c9.531 0 17.188-7.656 17.188-17.188v-165.625c0-9.531-7.656-17.188-17.188-17.188zM170.312 182.812c0 7.813-6.25 14.063-14.063 14.063h-112.5c-7.813 0-14.063-6.25-14.063-14.063v-165.625c0-7.813 6.25-14.063 14.063-14.063h112.5c7.813 0 14.063 6.25 14.063 14.063v165.625z"></path>
<path d="M100 79.687c-25.781 0-46.875 21.094-46.875 46.875s21.094 46.875 46.875 46.875 46.875-21.094 46.875-46.875-21.093-46.875-46.875-46.875zM100 170.312c-24.063 0-43.75-19.688-43.75-43.75s19.688-43.75 43.75-43.75 43.75 19.688 43.75 43.75-19.688 43.75-43.75 43.75z"></path>
<path d="M100 20.313c-12.031 0-21.875 9.844-21.875 21.875s9.844 21.875 21.875 21.875c12.031 0 21.875-9.844 21.875-21.875s-9.843-21.875-21.875-21.875zM100 60.937c-10.313 0-18.75-8.437-18.75-18.75s8.438-18.75 18.75-18.75 18.75 8.438 18.75 18.75c0 10.313-8.438 18.75-18.75 18.75z"></path>
<path d="M100 87.5c-21.563 0-39.063 17.5-39.063 39.063s17.5 39.063 39.063 39.063c21.563 0 39.063-17.5 39.063-39.062s-17.5-39.063-39.063-39.063zM100 162.5c-19.844 0-35.938-16.094-35.938-35.938s16.094-35.938 35.938-35.938 35.938 16.094 35.938 35.938-16.093 35.938-35.938 35.938z"></path>
<path d="M100 104.687c-12.031 0-21.875 9.844-21.875 21.875s9.844 21.875 21.875 21.875c12.031 0 21.875-9.844 21.875-21.875s-9.843-21.875-21.875-21.875zM100 145.312c-10.313 0-18.75-8.438-18.75-18.75s8.438-18.75 18.75-18.75 18.75 8.438 18.75 18.75-8.438 18.75-18.75 18.75z"></path>
<path d="M100 28.125c-7.813 0-14.063 6.25-14.063 14.063s6.25 14.063 14.063 14.063 14.063-6.25 14.063-14.063c0-7.813-6.25-14.063-14.063-14.063zM100 53.125c-6.094 0-10.938-4.844-10.938-10.938s4.844-10.938 10.938-10.938 10.938 4.844 10.938 10.938c0 6.094-4.843 10.938-10.938 10.938z"></path>
<path d="M43.75 12.5c-2.656 0-4.688 2.031-4.688 4.688s2.031 4.688 4.688 4.688 4.688-2.031 4.688-4.688c0-2.656-2.031-4.688-4.688-4.688zM43.75 18.75c-0.938 0-1.563-0.625-1.563-1.563s0.625-1.563 1.563-1.563 1.563 0.625 1.563 1.563-0.625 1.563-1.563 1.563z"></path>
<path d="M156.25 12.5c-2.656 0-4.688 2.031-4.688 4.688s2.031 4.688 4.688 4.688 4.688-2.031 4.688-4.688c0-2.656-2.031-4.688-4.688-4.688zM156.25 18.75c-0.938 0-1.563-0.625-1.563-1.563s0.625-1.563 1.563-1.563c0.937 0 1.563 0.625 1.563 1.563s-0.625 1.563-1.563 1.563z"></path>
<path d="M43.75 178.125c-2.656 0-4.688 2.031-4.688 4.688s2.031 4.688 4.688 4.688 4.688-2.031 4.688-4.688-2.031-4.688-4.688-4.688zM43.75 184.375c-0.938 0-1.563-0.625-1.563-1.563s0.625-1.563 1.563-1.563 1.563 0.625 1.563 1.563-0.625 1.563-1.563 1.563z"></path>
<path d="M156.25 178.125c-2.656 0-4.688 2.031-4.688 4.688s2.031 4.688 4.688 4.688 4.688-2.031 4.688-4.688-2.031-4.688-4.688-4.688zM156.25 184.375c-0.938 0-1.563-0.625-1.563-1.563s0.625-1.563 1.563-1.563c0.937 0 1.563 0.625 1.563 1.563s-0.625 1.563-1.563 1.563z"></path>
</svg>
