<!-- Generated by IcoMoon.io -->
<svg version="1.1" xmlns="http://www.w3.org/2000/svg" width="20" height="20" viewBox="0 0 200 200">
<title>team</title>
<path d="M176.453 92.68c-6.805-3.402-19.565-3.442-20.105-3.442-1.618 0-2.93 1.312-2.93 2.93s1.312 2.93 2.93 2.93c3.293 0 12.852 0.507 17.485 2.823 0.421 0.211 0.868 0.31 1.308 0.31 1.075 0 2.109-0.594 2.623-1.62 0.724-1.447 0.137-3.207-1.31-3.931z"></path>
<path d="M191.059 134.391l-12.1-3.457c-0.522-0.149-0.887-0.633-0.887-1.176v-4.039c0.984-0.682 1.923-1.445 2.801-2.297 4.254-4.128 6.596-9.665 6.596-15.592v-5.573l1.17-2.339c1.284-2.568 1.962-5.444 1.962-8.315v-15.098c0-1.618-1.312-2.93-2.93-2.93h-28.193c-10.252 0-18.592 8.341-18.592 18.592v0.175c0 2.387 0.564 4.779 1.632 6.914l1.5 3.001v4.785c0 7.584 3.737 14.388 9.398 18.482l0.001 4.233c0 0.653 0 0.923-2.419 1.614l-5.904 1.687-17.079-6.21c0.061-0.806-0.211-1.625-0.798-2.243l-5.457-5.734v-9.625c0.577-0.475 1.146-0.964 1.697-1.48 6.885-6.453 10.833-15.564 10.833-24.996v-7.687c2.079-4.524 3.132-9.311 3.132-14.241v-31.324c0-1.618-1.312-2.93-2.93-2.93h-43.855c-15.434 0-27.989 12.556-27.989 27.989v6.265c0 4.93 1.054 9.717 3.132 14.241v6.614c0 10.952 4.87 20.818 12.53 27.323v9.852l-5.457 5.734c-0.588 0.618-0.86 1.437-0.798 2.243l-18.025 6.554c-1.306 0.475-2.52 1.118-3.622 1.898l-2.83-1.415c8.426-3.668 11.095-8.826 11.223-9.082 0.413-0.825 0.413-1.796 0-2.62-2.112-4.224-2.368-11.967-2.573-18.188-0.068-2.071-0.133-4.028-0.257-5.77-0.999-14.052-11.682-24.65-24.85-24.65s-23.851 10.597-24.85 24.65c-0.124 1.743-0.189 3.699-0.257 5.771-0.205 6.221-0.462 13.963-2.573 18.187-0.413 0.825-0.413 1.796 0 2.62 0.128 0.256 2.792 5.404 11.234 9.076l-7.862 3.931c-4.203 2.103-6.814 6.328-6.814 11.027v21.644c0 1.618 1.312 2.93 2.93 2.93s2.93-1.312 2.93-2.93v-21.644c0-2.466 1.37-4.682 3.575-5.785l9.79-4.895 3.405 3.236c2.381 2.263 5.436 3.394 8.492 3.394s6.111-1.132 8.492-3.394l3.405-3.236 3.192 1.596c-1.503 2.405-2.356 5.225-2.356 8.18v22.549c0 1.618 1.312 2.93 2.93 2.93s2.93-1.312 2.93-2.93v-22.549c0-4.022 2.539-7.648 6.32-9.022l19.005-6.911 7.911 11.868c1.011 1.517 2.632 2.49 4.446 2.67 0.202 0.020 0.404 0.030 0.604 0.030 1.601 0 3.134-0.63 4.28-1.776l4.827-4.827v30.517c0 1.618 1.312 2.93 2.93 2.93s2.93-1.312 2.93-2.93v-30.517l4.827 4.827c1.146 1.146 2.679 1.776 4.28 1.776 0.2 0 0.402-0.010 0.604-0.030 1.815-0.18 3.436-1.153 4.447-2.67l7.912-11.867 19.004 6.911c3.78 1.375 6.32 5 6.32 9.022v22.549c0 1.618 1.312 2.93 2.93 2.93s2.93-1.312 2.93-2.93v-22.549c0-4.073-1.618-7.894-4.333-10.719l0.724-0.207c0.73-0.209 1.726-0.494 2.726-0.984l7.48 7.48v26.979c0 1.618 1.312 2.93 2.93 2.93s2.93-1.312 2.93-2.93v-26.979l7.428-7.428c0.395 0.201 0.81 0.37 1.246 0.495l12.1 3.457c2.762 0.789 4.691 3.346 4.691 6.219v24.236c0 1.618 1.312 2.93 2.93 2.93s2.93-1.312 2.93-2.93v-24.236c0-5.476-3.677-10.35-8.941-11.855zM18.795 129.216c-5.48-1.972-8.229-4.601-9.402-6.036 0.8-2.091 1.319-4.487 1.67-7.015 1.616 3.874 4.321 7.181 7.732 9.54v3.511zM35.578 137.145c-2.499 2.374-6.413 2.374-8.911-0l-2.725-2.589c0.46-0.861 0.712-1.838 0.712-2.861v-3.123c2.044 0.639 4.216 0.983 6.468 0.983 2.249 0 4.42-0.346 6.468-0.981l-0 3.12c0 1.023 0.252 2 0.713 2.862l-2.724 2.589zM31.123 123.696c-8.748 0-15.865-7.117-15.865-15.865 0-1.618-1.312-2.93-2.93-2.93-0.164 0-0.324 0.017-0.481 0.043 0.009-0.252 0.017-0.504 0.025-0.754 0.065-2.014 0.128-3.917 0.244-5.549 0.374-5.264 2.478-10.115 5.923-13.659 3.476-3.577 8.122-5.546 13.082-5.546s9.606 1.97 13.082 5.546c3.445 3.545 5.549 8.395 5.923 13.659 0.116 1.632 0.179 3.534 0.245 5.548 0.006 0.173 0.012 0.348 0.018 0.523-3.188-4.911-8.11-8.53-14.471-10.574-5.876-1.888-10.93-1.771-11.143-1.766-0.767 0.021-1.495 0.343-2.028 0.895l-5.286 5.482c-1.123 1.165-1.089 3.020 0.075 4.143s3.020 1.089 4.143-0.075l4.398-4.561c3.788 0.185 15.974 1.602 20.714 12.039-1.193 7.691-7.803 13.402-15.67 13.402zM43.449 129.226l0-3.494c3.408-2.346 6.118-5.647 7.735-9.55 0.351 2.523 0.87 4.913 1.668 6.999-1.167 1.422-3.929 4.074-9.403 6.045zM71.642 81.697v-7.269c0-0.441-0.1-0.877-0.291-1.274-1.885-3.904-2.841-8.046-2.841-12.312v-6.265c0-12.203 9.928-22.13 22.13-22.13h40.925v28.395c0 4.266-0.956 8.408-2.841 12.312-0.192 0.397-0.291 0.833-0.291 1.274v8.342c0 7.934-3.189 15.293-8.981 20.721-0.723 0.677-1.473 1.313-2.249 1.904-0.017 0.012-0.034 0.025-0.050 0.037-5.425 4.119-12.071 6.121-19.011 5.671-14.86-0.962-26.5-13.879-26.5-29.407zM88.138 140.647c-0.020 0.020-0.068 0.068-0.163 0.058s-0.133-0.065-0.149-0.089l-9.111-13.667 2.932-3.081 13.822 9.448-7.331 7.331zM100.037 129.341l-15.865-10.845v-5.469c4.105 2.219 8.702 3.607 13.59 3.923 0.772 0.050 1.54 0.075 2.305 0.075 5.602 0 10.993-1.339 15.835-3.881v5.352l-15.865 10.845zM112.249 140.616c-0.016 0.024-0.054 0.080-0.149 0.089-0.096 0.012-0.143-0.038-0.163-0.058l-7.331-7.331 13.822-9.448 2.932 3.081-9.112 13.667zM165.745 138.145l-6.648-6.648c0.116-0.527 0.182-1.104 0.181-1.74l-0-1.236c1.845 0.605 3.789 0.965 5.802 1.025 0.226 0.007 0.45 0.010 0.675 0.010 2.223 0 4.394-0.336 6.459-0.977v1.18c0 0.584 0.073 1.157 0.212 1.707l-6.68 6.679zM176.793 119.217c-3.105 3.013-7.207 4.605-11.538 4.471-8.478-0.254-15.375-7.722-15.375-16.646v-5.477c0-0.455-0.106-0.904-0.309-1.31l-1.81-3.62c-0.663-1.326-1.013-2.811-1.013-4.293v-0.175c0-7.021 5.712-12.733 12.733-12.733h25.263v12.168c0 1.966-0.465 3.936-1.344 5.695l-1.479 2.958c-0.204 0.407-0.309 0.855-0.309 1.31v6.265c0 4.328-1.711 8.372-4.818 11.387z"></path>
<path d="M184.54 148.755c-1.618 0-2.93 1.312-2.93 2.93v18.795c0 1.618 1.312 2.93 2.93 2.93s2.93-1.312 2.93-2.93v-18.795c0-1.618-1.312-2.93-2.93-2.93z"></path>
<path d="M15.46 152.628c-1.618 0-2.93 1.312-2.93 2.93v14.922c0 1.618 1.312 2.93 2.93 2.93s2.93-1.312 2.93-2.93v-14.922c0-1.618-1.312-2.93-2.93-2.93z"></path>
<path d="M124.036 61.904c-11.080-11.080-34.264-8.962-43.718-7.537-2.978 0.449-5.139 2.969-5.139 5.992v6.749c0 1.618 1.312 2.93 2.93 2.93s2.93-1.312 2.93-2.93v-6.75c0-0.1 0.066-0.185 0.153-0.198 3.776-0.569 11.27-1.447 19.033-0.93 9.136 0.608 15.753 2.902 19.668 6.816 1.144 1.144 2.999 1.144 4.143 0s1.144-2.999 0-4.143z"></path>
<path d="M65.58 155.021c-1.618 0-2.93 1.312-2.93 2.93v12.53c0 1.618 1.312 2.93 2.93 2.93s2.93-1.312 2.93-2.93v-12.53c0-1.618-1.312-2.93-2.93-2.93z"></path>
<path d="M134.495 155.021c-1.618 0-2.93 1.312-2.93 2.93v12.53c0 1.618 1.312 2.93 2.93 2.93s2.93-1.312 2.93-2.93v-12.53c0-1.618-1.312-2.93-2.93-2.93z"></path>
</svg>
