<?xml version="1.0" encoding="iso-8859-1"?>
<!-- Generator: Adobe Illustrator 19.0.0, SVG Export Plug-In . SVG Version: 6.00 Build 0)  -->
<svg version="1.1" width="20" height="20" id="Capa_1" xmlns="http://www.w3.org/2000/svg" xmlns:xlink="http://www.w3.org/1999/xlink" x="0px" y="0px"
	 viewBox="0 0 381.04 381.04" style="enable-background:new 0 0 381.04 381.04;" xml:space="preserve">
<g>
	<g>
		<path d="M136,130.848c-9.123-9.153-21.517-14.292-34.44-14.28c-26.885-0.002-48.682,21.791-48.684,48.676
			c-0.002,26.885,21.791,48.682,48.676,48.684c26.885,0.002,48.682-21.791,48.684-48.676
			C150.237,152.351,145.117,139.977,136,130.848z M126.16,189.888v-0.04c-13.594,13.586-35.628,13.58-49.215-0.015
			s-13.58-35.628,0.015-49.215c13.594-13.586,35.628-13.58,49.215,0.015c6.525,6.529,10.189,15.384,10.185,24.615
			C136.38,174.493,132.708,183.363,126.16,189.888z"/>
	</g>
</g>
<g>
	<g>
		<path d="M104.16,229.888h-5.2c-54.606,0.154-98.828,44.394-98.96,99v7c0,3.844,3.116,6.96,6.96,6.96h189.2
			c3.844,0,6.96-3.116,6.96-6.96v-7C202.966,274.292,158.757,230.064,104.16,229.888z M189.24,328.928H13.88
			c0.11-46.949,38.131-84.988,85.08-85.12h5.2c46.934,0.132,84.948,38.146,85.08,85.08V328.928z"/>
	</g>
</g>
<g>
	<g>
		<path d="M321.283,103.369c-0.896-0.847-2.002-1.441-3.203-1.721l0.04,0.04l-26.8-6.2l-14.12-23.48
			c-1.904-3.314-6.134-4.456-9.448-2.552c-1.062,0.61-1.942,1.491-2.552,2.552l-14.16,23.56l-26.8,6.2
			c-3.725,0.854-6.052,4.567-5.198,8.292c0.254,1.105,0.775,2.132,1.518,2.988l18.04,20.68l-2.4,27.44
			c-0.349,3.806,2.453,7.174,6.259,7.523c1.14,0.105,2.288-0.075,3.341-0.523l25.36-10.76l24.76,10.48
			c3.395,1.802,7.609,0.511,9.411-2.884c0.625-1.177,0.899-2.508,0.789-3.836l-2.4-27.44l17.84-20.52
			C324.201,110.415,324.077,106.01,321.283,103.369z M291.36,126.928c-1.229,1.41-1.835,3.256-1.68,5.12l1.64,18.84l-17.44-7.4
			c-1.714-0.72-3.646-0.72-5.36,0l-17.44,7.4l1.64-18.84c0.149-2.064-0.628-4.087-2.12-5.52l-12-13.88l18.4-4.28
			c1.944-0.437,3.606-1.69,4.56-3.44l9.6-16l9.76,16.2c0.968,1.623,2.558,2.779,4.4,3.2l18.4,4.28L291.36,126.928z"/>
	</g>
</g>
<g>
	<g>
		<path d="M348.2,61.808c-22.526-15.779-49.461-24.038-76.96-23.6c-27.499-0.438-54.434,7.821-76.96,23.6
			c-20.4,15.04-33.04,36-33.04,59.28c0.038,10.556,2.632,20.945,7.56,30.28c4.383,8.309,10.176,15.793,17.12,22.12l-17.48,36.24
			c-1.593,3.474-0.067,7.582,3.407,9.174c2.086,0.956,4.511,0.816,6.473-0.374l40-24.76c7.639,3.12,15.554,5.518,23.64,7.16
			c9.569,1.965,19.312,2.957,29.08,2.96c27.499,0.438,54.434-7.821,76.96-23.6c20.4-15.04,33.04-36,33.04-59.28
			C381.04,97.728,368.6,76.848,348.2,61.808z M339.96,169.168H340c-20.15,14.025-44.213,21.332-68.76,20.88
			c-8.839,0.023-17.657-0.848-26.32-2.6c-8.255-1.701-16.302-4.289-24-7.72c-2.174-0.976-4.698-0.765-6.68,0.56l-23,14.24l9.44-20
			c1.343-2.943,0.481-6.424-2.08-8.4c-7.182-5.815-13.125-13.01-17.48-21.16c-3.901-7.399-5.946-15.635-5.96-24
			c0-18.64,10.44-35.64,27.32-48c20.144-14.003,44.191-21.296,68.72-20.84c24.547-0.452,48.61,6.855,68.76,20.88
			c16.88,12.44,27.32,29.44,27.32,48S356.84,156.728,339.96,169.168z"/>
	</g>
</g>
<g>
</g>
<g>
</g>
<g>
</g>
<g>
</g>
<g>
</g>
<g>
</g>
<g>
</g>
<g>
</g>
<g>
</g>
<g>
</g>
<g>
</g>
<g>
</g>
<g>
</g>
<g>
</g>
<g>
</g>
</svg>
