<!-- Generated by IcoMoon.io -->
<svg version="1.1" xmlns="http://www.w3.org/2000/svg" width="20" height="20" viewBox="0 0 200 200">
<title>progress-bar-line</title>
<path d="M35.668 27.045c0-5.418-4.407-9.827-9.825-9.827s-9.827 4.408-9.827 9.827c0 5.417 4.408 9.825 9.827 9.825 5.417 0 9.825-4.408 9.825-9.825zM21.875 27.045c0-2.188 1.781-3.967 3.967-3.967s3.966 1.779 3.966 3.967c0 2.187-1.779 3.966-3.966 3.966s-3.967-1.779-3.967-3.966z"></path>
<path d="M49.185 36.87c5.418 0 9.827-4.408 9.827-9.825 0-5.418-4.408-9.827-9.827-9.827s-9.825 4.408-9.825 9.827c0 5.417 4.407 9.825 9.825 9.825zM49.185 23.077c2.188 0 3.967 1.779 3.967 3.967 0 2.187-1.781 3.966-3.967 3.966s-3.966-1.779-3.966-3.966c0-2.188 1.779-3.967 3.966-3.967z"></path>
<path d="M72.53 36.87c5.417 0 9.825-4.408 9.825-9.825 0-5.418-4.408-9.827-9.825-9.827-5.418 0-9.827 4.408-9.827 9.827 0 5.417 4.408 9.825 9.827 9.825zM72.53 23.077c2.187 0 3.966 1.779 3.966 3.967 0 2.187-1.779 3.966-3.966 3.966-2.188 0-3.967-1.779-3.967-3.966 0-2.188 1.779-3.967 3.967-3.967z"></path>
<path d="M104.949 29.974h71.353c1.619 0 2.93-1.312 2.93-2.93 0-1.619-1.311-2.93-2.93-2.93h-71.353c-1.619 0-2.93 1.311-2.93 2.93 0 1.617 1.311 2.93 2.93 2.93z"></path>
<path d="M187.377 6.64h-175.534c-6.744 0-12.233 5.487-12.233 12.233v162.989c0 6.746 5.489 12.233 12.233 12.233h175.534c6.744 0 12.233-5.487 12.233-12.233v-162.989c0-6.746-5.489-12.233-12.233-12.233zM187.377 188.236h-175.534c-3.514 0-6.374-2.86-6.374-6.374v-134.415h16.331c1.619 0 2.93-1.312 2.93-2.93 0-1.619-1.311-2.93-2.93-2.93h-16.331v-22.714c0-3.514 2.86-6.374 6.374-6.374h175.534c3.514 0 6.374 2.86 6.374 6.374v22.714h-161.013c-1.617 0-2.93 1.311-2.93 2.93 0 1.617 1.312 2.93 2.93 2.93h161.013v134.415c0 3.514-2.86 6.374-6.374 6.374z"></path>
<path d="M176.535 88.367h-21.696c-2.112 0-4.045 0.777-5.528 2.062-1.483-1.283-3.418-2.062-5.528-2.062h-21.696c-2.112 0-4.045 0.777-5.53 2.062-1.483-1.285-3.416-2.062-5.528-2.062h-21.696c-2.112 0-4.045 0.777-5.528 2.062-1.485-1.283-3.418-2.062-5.528-2.062h-21.696c-2.112 0-4.045 0.777-5.53 2.062-1.483-1.283-3.416-2.062-5.528-2.062h-21.696c-4.665 0-8.46 3.793-8.46 8.458v45.19c0 4.665 3.795 8.458 8.46 8.458h21.696c2.112 0 4.045-0.777 5.528-2.062 1.483 1.283 3.416 2.062 5.528 2.062h21.696c2.112 0 4.045-0.777 5.528-2.062 1.483 1.283 3.418 2.062 5.528 2.062h4.811c1.619 0 2.93-1.311 2.93-2.93 0-1.617-1.311-2.93-2.93-2.93h-4.81c-1.433 0-2.599-1.166-2.599-2.599v-45.19c0-1.433 1.166-2.599 2.599-2.599h21.696c1.433 0 2.599 1.166 2.599 2.599v45.19c0 1.433-1.166 2.6-2.599 2.6h-5.949c-1.619 0-2.93 1.311-2.93 2.93 0 1.617 1.311 2.93 2.93 2.93h5.949c2.112 0 4.045-0.778 5.528-2.063 1.483 1.285 3.418 2.063 5.528 2.063h21.696c2.112 0 4.045-0.778 5.53-2.063 1.483 1.285 3.416 2.063 5.528 2.063h21.696c4.663 0 8.458-3.795 8.458-8.46v-45.19c0-4.665-3.795-8.458-8.458-8.458zM45.52 144.615h-21.696c-1.434 0-2.6-1.167-2.6-2.6v-45.19c0-1.433 1.166-2.599 2.6-2.599h21.696c1.433 0 2.599 1.166 2.599 2.599v45.19c0 1.434-1.166 2.6-2.599 2.6zM78.273 144.615h-21.696c-1.433 0-2.599-1.167-2.599-2.6v-45.19c0-1.433 1.166-2.599 2.599-2.599h21.696c1.434 0 2.599 1.166 2.599 2.599v45.19c0 1.434-1.164 2.6-2.599 2.6zM143.781 144.615h-21.696c-1.433 0-2.599-1.167-2.599-2.6v-45.19c0-1.433 1.166-2.599 2.599-2.599h21.696c1.434 0 2.6 1.166 2.6 2.599v45.19c0 1.434-1.166 2.6-2.6 2.6zM179.134 142.015c0 1.433-1.166 2.6-2.599 2.6h-21.696c-1.433 0-2.599-1.167-2.599-2.6v-45.19c0-1.433 1.166-2.599 2.599-2.599h21.696c1.433 0 2.599 1.166 2.599 2.599z"></path>
</svg>
